<svg width="328" height="312" viewBox="0 0 328 312" fill="none" xmlns="http://www.w3.org/2000/svg">
<g filter="url(#filter0_b_130_668)">
<rect x="1.50195" y="1" width="462" height="338" rx="24" fill="url(#paint0_linear_130_668)" fill-opacity="0.4"/>
<rect x="1.50195" y="1" width="462" height="338" rx="24" stroke="url(#paint1_linear_130_668)" stroke-width="1.5"/>
</g>
<path d="M1.50195 44L373.502 44" stroke="white" stroke-opacity="0.1"/>
<g filter="url(#filter1_d_130_668)">
<circle cx="31.4543" cy="22.9524" r="5.95238" fill="white" fill-opacity="0.2" shape-rendering="crispEdges"/>
</g>
<g filter="url(#filter2_d_130_668)">
<circle cx="50.5017" cy="22.9524" r="5.95238" fill="white" fill-opacity="0.2" shape-rendering="crispEdges"/>
</g>
<g filter="url(#filter3_d_130_668)">
<circle cx="69.5495" cy="22.9524" r="5.95238" fill="white" fill-opacity="0.2" shape-rendering="crispEdges"/>
</g>
<g filter="url(#filter4_b_130_668)">
<rect x="93.502" y="13" width="278" height="20" rx="10" fill="white" fill-opacity="0.2"/>
</g>
<path d="M103.932 28.7676C104.017 28.7676 104.155 28.7356 104.289 28.661C107.322 26.9605 108.361 26.2409 108.361 24.2953V20.2175C108.361 19.6578 108.121 19.4819 107.668 19.29C107.039 19.0288 105.008 18.2985 104.379 18.08C104.235 18.032 104.081 18 103.932 18C103.782 18 103.628 18.0426 103.489 18.08C102.86 18.2612 100.824 19.0341 100.195 19.29C99.7472 19.4765 99.502 19.6578 99.502 20.2175V24.2953C99.502 26.2409 100.547 26.9552 103.574 28.661C103.713 28.7356 103.846 28.7676 103.932 28.7676ZM104.145 18.9062C104.95 19.226 106.512 19.791 107.338 20.0736C107.482 20.1269 107.514 20.2015 107.514 20.3827V24.0981C107.514 25.7452 106.725 26.177 104.262 27.6748C104.107 27.7708 104.022 27.7974 103.937 27.8028V18.8582C103.99 18.8582 104.06 18.8742 104.145 18.9062Z" fill="white"/>
<path d="M190.299 21.592L188.931 26H187.971L187.083 22.744L186.195 26H185.235L183.859 21.592H184.787L185.707 25.136L186.643 21.592H187.595L188.491 25.12L189.403 21.592H190.299ZM196.901 21.592L195.533 26H194.573L193.685 22.744L192.797 26H191.837L190.461 21.592H191.389L192.309 25.136L193.245 21.592H194.197L195.093 25.12L196.005 21.592H196.901ZM203.502 21.592L202.134 26H201.174L200.286 22.744L199.398 26H198.438L197.062 21.592H197.99L198.91 25.136L199.846 21.592H200.798L201.694 25.12L202.606 21.592H203.502ZM204.552 26.056C204.387 26.056 204.248 26 204.136 25.888C204.024 25.776 203.968 25.6373 203.968 25.472C203.968 25.3067 204.024 25.168 204.136 25.056C204.248 24.944 204.387 24.888 204.552 24.888C204.712 24.888 204.848 24.944 204.96 25.056C205.072 25.168 205.128 25.3067 205.128 25.472C205.128 25.6373 205.072 25.776 204.96 25.888C204.848 26 204.712 26.056 204.552 26.056ZM207.026 22.248C207.18 22.0347 207.391 21.8613 207.658 21.728C207.93 21.5893 208.231 21.52 208.562 21.52C208.951 21.52 209.303 21.6133 209.618 21.8C209.932 21.9867 210.18 22.2533 210.362 22.6C210.543 22.9413 210.634 23.3333 210.634 23.776C210.634 24.2187 210.543 24.616 210.362 24.968C210.18 25.3147 209.93 25.5867 209.61 25.784C209.295 25.976 208.946 26.072 208.562 26.072C208.22 26.072 207.916 26.0053 207.65 25.872C207.388 25.7387 207.18 25.568 207.026 25.36V26H206.114V20.08H207.026V22.248ZM209.706 23.776C209.706 23.472 209.642 23.2107 209.514 22.992C209.391 22.768 209.226 22.6 209.018 22.488C208.815 22.3707 208.596 22.312 208.362 22.312C208.132 22.312 207.914 22.3707 207.706 22.488C207.503 22.6053 207.338 22.776 207.21 23C207.087 23.224 207.026 23.488 207.026 23.792C207.026 24.096 207.087 24.3627 207.21 24.592C207.338 24.816 207.503 24.9867 207.706 25.104C207.914 25.2213 208.132 25.28 208.362 25.28C208.596 25.28 208.815 25.2213 209.018 25.104C209.226 24.9813 209.391 24.8053 209.514 24.576C209.642 24.3467 209.706 24.08 209.706 23.776ZM211.232 23.776C211.232 23.3333 211.322 22.9413 211.504 22.6C211.69 22.2587 211.941 21.9947 212.256 21.808C212.576 21.616 212.928 21.52 213.312 21.52C213.658 21.52 213.96 21.5893 214.216 21.728C214.477 21.8613 214.685 22.0293 214.84 22.232V21.592H215.76V26H214.84V25.344C214.685 25.552 214.474 25.7253 214.208 25.864C213.941 26.0027 213.637 26.072 213.296 26.072C212.917 26.072 212.57 25.976 212.256 25.784C211.941 25.5867 211.69 25.3147 211.504 24.968C211.322 24.616 211.232 24.2187 211.232 23.776ZM214.84 23.792C214.84 23.488 214.776 23.224 214.648 23C214.525 22.776 214.362 22.6053 214.16 22.488C213.957 22.3707 213.738 22.312 213.504 22.312C213.269 22.312 213.05 22.3707 212.848 22.488C212.645 22.6 212.48 22.768 212.352 22.992C212.229 23.2107 212.168 23.472 212.168 23.776C212.168 24.08 212.229 24.3467 212.352 24.576C212.48 24.8053 212.645 24.9813 212.848 25.104C213.056 25.2213 213.274 25.28 213.504 25.28C213.738 25.28 213.957 25.2213 214.16 25.104C214.362 24.9867 214.525 24.816 214.648 24.592C214.776 24.3627 214.84 24.096 214.84 23.792ZM219.181 21.52C219.528 21.52 219.837 21.592 220.109 21.736C220.387 21.88 220.603 22.0933 220.757 22.376C220.912 22.6587 220.989 23 220.989 23.4V26H220.085V23.536C220.085 23.1413 219.987 22.84 219.789 22.632C219.592 22.4187 219.323 22.312 218.981 22.312C218.64 22.312 218.368 22.4187 218.165 22.632C217.968 22.84 217.869 23.1413 217.869 23.536V26H216.957V21.592H217.869V22.096C218.019 21.9147 218.208 21.7733 218.437 21.672C218.672 21.5707 218.92 21.52 219.181 21.52ZM223.217 22.336V24.776C223.217 24.9413 223.254 25.0613 223.329 25.136C223.409 25.2053 223.542 25.24 223.729 25.24H224.289V26H223.569C223.158 26 222.843 25.904 222.625 25.712C222.406 25.52 222.297 25.208 222.297 24.776V22.336H221.777V21.592H222.297V20.496H223.217V21.592H224.289V22.336H223.217ZM229.121 21.592V26H228.209V25.48C228.065 25.6613 227.876 25.8053 227.641 25.912C227.412 26.0133 227.167 26.064 226.905 26.064C226.559 26.064 226.247 25.992 225.969 25.848C225.697 25.704 225.481 25.4907 225.321 25.208C225.167 24.9253 225.089 24.584 225.089 24.184V21.592H225.993V24.048C225.993 24.4427 226.092 24.7467 226.289 24.96C226.487 25.168 226.756 25.272 227.097 25.272C227.439 25.272 227.708 25.168 227.905 24.96C228.108 24.7467 228.209 24.4427 228.209 24.048V21.592H229.121ZM230.693 26.056C230.527 26.056 230.389 26 230.277 25.888C230.165 25.776 230.109 25.6373 230.109 25.472C230.109 25.3067 230.165 25.168 230.277 25.056C230.389 24.944 230.527 24.888 230.693 24.888C230.853 24.888 230.989 24.944 231.101 25.056C231.213 25.168 231.269 25.3067 231.269 25.472C231.269 25.6373 231.213 25.776 231.101 25.888C230.989 26 230.853 26.056 230.693 26.056ZM231.95 23.776C231.95 23.3333 232.041 22.9413 232.222 22.6C232.409 22.2587 232.66 21.9947 232.974 21.808C233.294 21.616 233.646 21.52 234.03 21.52C234.377 21.52 234.678 21.5893 234.934 21.728C235.196 21.8613 235.404 22.0293 235.558 22.232V21.592H236.478V26H235.558V25.344C235.404 25.552 235.193 25.7253 234.926 25.864C234.66 26.0027 234.356 26.072 234.014 26.072C233.636 26.072 233.289 25.976 232.974 25.784C232.66 25.5867 232.409 25.3147 232.222 24.968C232.041 24.616 231.95 24.2187 231.95 23.776ZM235.558 23.792C235.558 23.488 235.494 23.224 235.366 23C235.244 22.776 235.081 22.6053 234.878 22.488C234.676 22.3707 234.457 22.312 234.222 22.312C233.988 22.312 233.769 22.3707 233.566 22.488C233.364 22.6 233.198 22.768 233.07 22.992C232.948 23.2107 232.886 23.472 232.886 23.776C232.886 24.08 232.948 24.3467 233.07 24.576C233.198 24.8053 233.364 24.9813 233.566 25.104C233.774 25.2213 233.993 25.28 234.222 25.28C234.457 25.28 234.676 25.2213 234.878 25.104C235.081 24.9867 235.244 24.816 235.366 24.592C235.494 24.3627 235.558 24.096 235.558 23.792ZM239.452 21.52C239.794 21.52 240.095 21.5893 240.356 21.728C240.623 21.8613 240.831 22.0293 240.98 22.232V21.592H241.9V26.072C241.9 26.4773 241.815 26.8373 241.644 27.152C241.474 27.472 241.226 27.7227 240.9 27.904C240.58 28.0853 240.196 28.176 239.748 28.176C239.151 28.176 238.655 28.0347 238.26 27.752C237.866 27.4747 237.642 27.096 237.588 26.616H238.492C238.562 26.8453 238.708 27.0293 238.932 27.168C239.162 27.312 239.434 27.384 239.748 27.384C240.116 27.384 240.412 27.272 240.636 27.048C240.866 26.824 240.98 26.4987 240.98 26.072V25.336C240.826 25.544 240.615 25.72 240.348 25.864C240.087 26.0027 239.788 26.072 239.452 26.072C239.068 26.072 238.716 25.976 238.396 25.784C238.082 25.5867 237.831 25.3147 237.644 24.968C237.463 24.616 237.372 24.2187 237.372 23.776C237.372 23.3333 237.463 22.9413 237.644 22.6C237.831 22.2587 238.082 21.9947 238.396 21.808C238.716 21.616 239.068 21.52 239.452 21.52ZM240.98 23.792C240.98 23.488 240.916 23.224 240.788 23C240.666 22.776 240.503 22.6053 240.3 22.488C240.098 22.3707 239.879 22.312 239.644 22.312C239.41 22.312 239.191 22.3707 238.988 22.488C238.786 22.6 238.62 22.768 238.492 22.992C238.37 23.2107 238.308 23.472 238.308 23.776C238.308 24.08 238.37 24.3467 238.492 24.576C238.62 24.8053 238.786 24.9813 238.988 25.104C239.196 25.2213 239.415 25.28 239.644 25.28C239.879 25.28 240.098 25.2213 240.3 25.104C240.503 24.9867 240.666 24.816 240.788 24.592C240.916 24.3627 240.98 24.096 240.98 23.792ZM247.138 23.688C247.138 23.8533 247.127 24.0027 247.106 24.136H243.738C243.765 24.488 243.895 24.7707 244.13 24.984C244.365 25.1973 244.653 25.304 244.994 25.304C245.485 25.304 245.831 25.0987 246.034 24.688H247.018C246.885 25.0933 246.642 25.4267 246.29 25.688C245.943 25.944 245.511 26.072 244.994 26.072C244.573 26.072 244.194 25.9787 243.858 25.792C243.527 25.6 243.266 25.3333 243.074 24.992C242.887 24.6453 242.794 24.2453 242.794 23.792C242.794 23.3387 242.885 22.9413 243.066 22.6C243.253 22.2533 243.511 21.9867 243.842 21.8C244.178 21.6133 244.562 21.52 244.994 21.52C245.41 21.52 245.781 21.6107 246.106 21.792C246.431 21.9733 246.685 22.2293 246.866 22.56C247.047 22.8853 247.138 23.2613 247.138 23.688ZM246.186 23.4C246.181 23.064 246.061 22.7947 245.826 22.592C245.591 22.3893 245.301 22.288 244.954 22.288C244.639 22.288 244.37 22.3893 244.146 22.592C243.922 22.7893 243.789 23.0587 243.746 23.4H246.186ZM250.26 21.52C250.606 21.52 250.916 21.592 251.188 21.736C251.465 21.88 251.681 22.0933 251.836 22.376C251.99 22.6587 252.068 23 252.068 23.4V26H251.164V23.536C251.164 23.1413 251.065 22.84 250.868 22.632C250.67 22.4187 250.401 22.312 250.06 22.312C249.718 22.312 249.446 22.4187 249.244 22.632C249.046 22.84 248.948 23.1413 248.948 23.536V26H248.036V21.592H248.948V22.096C249.097 21.9147 249.286 21.7733 249.516 21.672C249.75 21.5707 249.998 21.52 250.26 21.52ZM252.927 23.792C252.927 23.3387 253.018 22.9413 253.199 22.6C253.386 22.2533 253.642 21.9867 253.967 21.8C254.292 21.6133 254.666 21.52 255.087 21.52C255.62 21.52 256.06 21.648 256.407 21.904C256.759 22.1547 256.996 22.5147 257.119 22.984H256.135C256.055 22.7653 255.927 22.5947 255.751 22.472C255.575 22.3493 255.354 22.288 255.087 22.288C254.714 22.288 254.415 22.4213 254.191 22.688C253.972 22.9493 253.863 23.3173 253.863 23.792C253.863 24.2667 253.972 24.6373 254.191 24.904C254.415 25.1707 254.714 25.304 255.087 25.304C255.615 25.304 255.964 25.072 256.135 24.608H257.119C256.991 25.056 256.751 25.4133 256.399 25.68C256.047 25.9413 255.61 26.072 255.087 26.072C254.666 26.072 254.292 25.9787 253.967 25.792C253.642 25.6 253.386 25.3333 253.199 24.992C253.018 24.6453 252.927 24.2453 252.927 23.792ZM261.996 21.592L259.292 28.072H258.348L259.244 25.928L257.508 21.592H258.524L259.764 24.952L261.052 21.592H261.996ZM263.052 26.056C262.887 26.056 262.748 26 262.636 25.888C262.524 25.776 262.468 25.6373 262.468 25.472C262.468 25.3067 262.524 25.168 262.636 25.056C262.748 24.944 262.887 24.888 263.052 24.888C263.212 24.888 263.348 24.944 263.46 25.056C263.572 25.168 263.628 25.3067 263.628 25.472C263.628 25.6373 263.572 25.776 263.46 25.888C263.348 26 263.212 26.056 263.052 26.056ZM264.31 23.792C264.31 23.3387 264.4 22.9413 264.582 22.6C264.768 22.2533 265.024 21.9867 265.35 21.8C265.675 21.6133 266.048 21.52 266.47 21.52C267.003 21.52 267.443 21.648 267.79 21.904C268.142 22.1547 268.379 22.5147 268.502 22.984H267.518C267.438 22.7653 267.31 22.5947 267.134 22.472C266.958 22.3493 266.736 22.288 266.47 22.288C266.096 22.288 265.798 22.4213 265.574 22.688C265.355 22.9493 265.246 23.3173 265.246 23.792C265.246 24.2667 265.355 24.6373 265.574 24.904C265.798 25.1707 266.096 25.304 266.47 25.304C266.998 25.304 267.347 25.072 267.518 24.608H268.502C268.374 25.056 268.134 25.4133 267.782 25.68C267.43 25.9413 266.992 26.072 266.47 26.072C266.048 26.072 265.675 25.9787 265.35 25.792C265.024 25.6 264.768 25.3333 264.582 24.992C264.4 24.6453 264.31 24.2453 264.31 23.792ZM271.323 26.072C270.907 26.072 270.531 25.9787 270.195 25.792C269.859 25.6 269.595 25.3333 269.403 24.992C269.211 24.6453 269.115 24.2453 269.115 23.792C269.115 23.344 269.213 22.9467 269.411 22.6C269.608 22.2533 269.877 21.9867 270.219 21.8C270.56 21.6133 270.941 21.52 271.363 21.52C271.784 21.52 272.165 21.6133 272.507 21.8C272.848 21.9867 273.117 22.2533 273.315 22.6C273.512 22.9467 273.611 23.344 273.611 23.792C273.611 24.24 273.509 24.6373 273.307 24.984C273.104 25.3307 272.827 25.6 272.475 25.792C272.128 25.9787 271.744 26.072 271.323 26.072ZM271.323 25.28C271.557 25.28 271.776 25.224 271.979 25.112C272.187 25 272.355 24.832 272.483 24.608C272.611 24.384 272.675 24.112 272.675 23.792C272.675 23.472 272.613 23.2027 272.491 22.984C272.368 22.76 272.205 22.592 272.003 22.48C271.8 22.368 271.581 22.312 271.347 22.312C271.112 22.312 270.893 22.368 270.691 22.48C270.493 22.592 270.336 22.76 270.219 22.984C270.101 23.2027 270.043 23.472 270.043 23.792C270.043 24.2667 270.163 24.6347 270.403 24.896C270.648 25.152 270.955 25.28 271.323 25.28ZM279.848 21.52C280.195 21.52 280.504 21.592 280.776 21.736C281.053 21.88 281.269 22.0933 281.424 22.376C281.584 22.6587 281.664 23 281.664 23.4V26H280.76V23.536C280.76 23.1413 280.661 22.84 280.464 22.632C280.267 22.4187 279.997 22.312 279.656 22.312C279.315 22.312 279.043 22.4187 278.84 22.632C278.643 22.84 278.544 23.1413 278.544 23.536V26H277.64V23.536C277.64 23.1413 277.541 22.84 277.344 22.632C277.147 22.4187 276.877 22.312 276.536 22.312C276.195 22.312 275.923 22.4187 275.72 22.632C275.523 22.84 275.424 23.1413 275.424 23.536V26H274.512V21.592H275.424V22.096C275.573 21.9147 275.763 21.7733 275.992 21.672C276.221 21.5707 276.467 21.52 276.728 21.52C277.08 21.52 277.395 21.5947 277.672 21.744C277.949 21.8933 278.163 22.1093 278.312 22.392C278.445 22.1253 278.653 21.9147 278.936 21.76C279.219 21.6 279.523 21.52 279.848 21.52Z" fill="white"/>
<g filter="url(#filter5_b_130_668)">
<rect x="26" y="61" width="345" height="169" rx="12" fill="white" fill-opacity="0.25"/>
</g>
<g filter="url(#filter6_b_130_668)">
<rect x="26" y="242" width="345" height="19" rx="9.5" fill="white" fill-opacity="0.25"/>
</g>
<g filter="url(#filter7_b_130_668)">
<rect x="26" y="273" width="259" height="12" rx="6" fill="white" fill-opacity="0.25"/>
</g>
<g filter="url(#filter8_b_130_668)">
<rect x="26" y="293" width="224" height="12" rx="6" fill="white" fill-opacity="0.25"/>
</g>
<defs>
<filter id="filter0_b_130_668" x="-14.248" y="-14.75" width="493.5" height="369.5" filterUnits="userSpaceOnUse" color-interpolation-filters="sRGB">
<feFlood flood-opacity="0" result="BackgroundImageFix"/>
<feGaussianBlur in="BackgroundImageFix" stdDeviation="7.5"/>
<feComposite in2="SourceAlpha" operator="in" result="effect1_backgroundBlur_130_668"/>
<feBlend mode="normal" in="SourceGraphic" in2="effect1_backgroundBlur_130_668" result="shape"/>
</filter>
<filter id="filter1_d_130_668" x="25.502" y="17" width="12.2024" height="12.2024" filterUnits="userSpaceOnUse" color-interpolation-filters="sRGB">
<feFlood flood-opacity="0" result="BackgroundImageFix"/>
<feColorMatrix in="SourceAlpha" type="matrix" values="0 0 0 0 0 0 0 0 0 0 0 0 0 0 0 0 0 0 127 0" result="hardAlpha"/>
<feOffset dx="0.297619" dy="0.297619"/>
<feComposite in2="hardAlpha" operator="out"/>
<feColorMatrix type="matrix" values="0 0 0 0 1 0 0 0 0 1 0 0 0 0 1 0 0 0 1 0"/>
<feBlend mode="normal" in2="BackgroundImageFix" result="effect1_dropShadow_130_668"/>
<feBlend mode="normal" in="SourceGraphic" in2="effect1_dropShadow_130_668" result="shape"/>
</filter>
<filter id="filter2_d_130_668" x="44.5493" y="17" width="12.2024" height="12.2024" filterUnits="userSpaceOnUse" color-interpolation-filters="sRGB">
<feFlood flood-opacity="0" result="BackgroundImageFix"/>
<feColorMatrix in="SourceAlpha" type="matrix" values="0 0 0 0 0 0 0 0 0 0 0 0 0 0 0 0 0 0 127 0" result="hardAlpha"/>
<feOffset dx="0.297619" dy="0.297619"/>
<feComposite in2="hardAlpha" operator="out"/>
<feColorMatrix type="matrix" values="0 0 0 0 1 0 0 0 0 1 0 0 0 0 1 0 0 0 1 0"/>
<feBlend mode="normal" in2="BackgroundImageFix" result="effect1_dropShadow_130_668"/>
<feBlend mode="normal" in="SourceGraphic" in2="effect1_dropShadow_130_668" result="shape"/>
</filter>
<filter id="filter3_d_130_668" x="63.5972" y="17" width="12.2024" height="12.2024" filterUnits="userSpaceOnUse" color-interpolation-filters="sRGB">
<feFlood flood-opacity="0" result="BackgroundImageFix"/>
<feColorMatrix in="SourceAlpha" type="matrix" values="0 0 0 0 0 0 0 0 0 0 0 0 0 0 0 0 0 0 127 0" result="hardAlpha"/>
<feOffset dx="0.297619" dy="0.297619"/>
<feComposite in2="hardAlpha" operator="out"/>
<feColorMatrix type="matrix" values="0 0 0 0 1 0 0 0 0 1 0 0 0 0 1 0 0 0 1 0"/>
<feBlend mode="normal" in2="BackgroundImageFix" result="effect1_dropShadow_130_668"/>
<feBlend mode="normal" in="SourceGraphic" in2="effect1_dropShadow_130_668" result="shape"/>
</filter>
<filter id="filter4_b_130_668" x="78.502" y="-2" width="308" height="50" filterUnits="userSpaceOnUse" color-interpolation-filters="sRGB">
<feFlood flood-opacity="0" result="BackgroundImageFix"/>
<feGaussianBlur in="BackgroundImageFix" stdDeviation="7.5"/>
<feComposite in2="SourceAlpha" operator="in" result="effect1_backgroundBlur_130_668"/>
<feBlend mode="normal" in="SourceGraphic" in2="effect1_backgroundBlur_130_668" result="shape"/>
</filter>
<filter id="filter5_b_130_668" x="11" y="46" width="375" height="199" filterUnits="userSpaceOnUse" color-interpolation-filters="sRGB">
<feFlood flood-opacity="0" result="BackgroundImageFix"/>
<feGaussianBlur in="BackgroundImageFix" stdDeviation="7.5"/>
<feComposite in2="SourceAlpha" operator="in" result="effect1_backgroundBlur_130_668"/>
<feBlend mode="normal" in="SourceGraphic" in2="effect1_backgroundBlur_130_668" result="shape"/>
</filter>
<filter id="filter6_b_130_668" x="11" y="227" width="375" height="49" filterUnits="userSpaceOnUse" color-interpolation-filters="sRGB">
<feFlood flood-opacity="0" result="BackgroundImageFix"/>
<feGaussianBlur in="BackgroundImageFix" stdDeviation="7.5"/>
<feComposite in2="SourceAlpha" operator="in" result="effect1_backgroundBlur_130_668"/>
<feBlend mode="normal" in="SourceGraphic" in2="effect1_backgroundBlur_130_668" result="shape"/>
</filter>
<filter id="filter7_b_130_668" x="11" y="258" width="289" height="42" filterUnits="userSpaceOnUse" color-interpolation-filters="sRGB">
<feFlood flood-opacity="0" result="BackgroundImageFix"/>
<feGaussianBlur in="BackgroundImageFix" stdDeviation="7.5"/>
<feComposite in2="SourceAlpha" operator="in" result="effect1_backgroundBlur_130_668"/>
<feBlend mode="normal" in="SourceGraphic" in2="effect1_backgroundBlur_130_668" result="shape"/>
</filter>
<filter id="filter8_b_130_668" x="11" y="278" width="254" height="42" filterUnits="userSpaceOnUse" color-interpolation-filters="sRGB">
<feFlood flood-opacity="0" result="BackgroundImageFix"/>
<feGaussianBlur in="BackgroundImageFix" stdDeviation="7.5"/>
<feComposite in2="SourceAlpha" operator="in" result="effect1_backgroundBlur_130_668"/>
<feBlend mode="normal" in="SourceGraphic" in2="effect1_backgroundBlur_130_668" result="shape"/>
</filter>
<linearGradient id="paint0_linear_130_668" x1="10.502" y1="10.5" x2="310.502" y2="310.5" gradientUnits="userSpaceOnUse">
<stop stop-color="white"/>
<stop offset="0.575256" stop-color="white" stop-opacity="0.111467"/>
<stop offset="1" stop-color="white" stop-opacity="0"/>
</linearGradient>
<linearGradient id="paint1_linear_130_668" x1="8.00195" y1="11" x2="116.502" y2="170" gradientUnits="userSpaceOnUse">
<stop stop-color="white"/>
<stop offset="1" stop-color="white" stop-opacity="0"/>
</linearGradient>
</defs>
</svg>
