<svg width="20" height="20" viewBox="0 0 20 20" fill="none" xmlns="http://www.w3.org/2000/svg">
<path d="M14.7884 13.0168L14.7884 7.12426C14.786 7.01458 14.7619 6.90644 14.7177 6.80606C14.6331 6.60367 14.4722 6.44275 14.2698 6.35823C14.1694 6.31394 14.0613 6.28991 13.9516 6.28752L8.05907 6.28752C7.94919 6.28752 7.84038 6.30916 7.73886 6.35121C7.63735 6.39326 7.5451 6.4549 7.4674 6.5326C7.31048 6.68952 7.22233 6.90234 7.22233 7.12426C7.22233 7.34618 7.31048 7.55901 7.4674 7.71593C7.62432 7.87285 7.83715 7.96101 8.05907 7.96101L11.9423 7.95511L6.88056 13.0168C6.72428 13.1731 6.63648 13.3851 6.63648 13.6061C6.63648 13.8271 6.72428 14.039 6.88056 14.1953C7.03684 14.3516 7.2488 14.4394 7.46982 14.4394C7.69083 14.4394 7.90279 14.3516 8.05907 14.1953L13.1208 9.13362L13.1149 13.0168C13.1144 13.1268 13.1358 13.2358 13.1777 13.3376C13.2195 13.4393 13.2812 13.5317 13.359 13.6095C13.4367 13.6873 13.5292 13.7489 13.6309 13.7908C13.7326 13.8327 13.8416 13.854 13.9516 13.8536C14.0616 13.854 14.1706 13.8327 14.2724 13.7908C14.3741 13.7489 14.4665 13.6873 14.5443 13.6095C14.6221 13.5317 14.6837 13.4393 14.7256 13.3376C14.7675 13.2358 14.7888 13.1268 14.7884 13.0168Z" fill="#16121E"/>
</svg>
